<svg xmlns="http://www.w3.org/2000/svg" width="540" height="400" viewBox="0 0 540 400"><rect width="100%" height="100%" fill="#DDDDDD"/><path fill="#999999" d="m122.13 182.035-1.84 10.83q1.73-.36 3.31-.52 1.59-.16 3.06-.16 4.11 0 7.24 1.22 3.13 1.23 5.25 3.39 2.13 2.16 3.21 5.06 1.08 2.89 1.08 6.24 0 4.14-1.46 7.56t-4.05 5.85-6.14 3.76q-3.54 1.34-7.72 1.34-2.45 0-4.64-.51-2.2-.5-4.13-1.35-1.92-.84-3.56-1.94t-2.93-2.32l2.73-3.78q.87-1.23 2.27-1.23.9 0 1.84.58.93.57 2.14 1.26 1.2.68 2.84 1.26 1.64.57 3.94.57 2.45 0 4.32-.79 1.88-.79 3.12-2.21t1.87-3.39q.63-1.96.63-4.26 0-4.25-2.47-6.64-2.46-2.4-7.29-2.4-3.7 0-7.59 1.37l-5.55-1.58 4.32-25.28h25.71v3.78q0 1.91-1.19 3.1t-4.03 1.19zm35.1 24.37h15.84v-17.03q0-2.41.32-5.33zm23.58 0h6.55v5.15q0 .72-.47 1.24t-1.33.52h-4.75v12.71h-7.74v-12.71h-21.96q-.9 0-1.59-.56-.68-.55-.86-1.38l-.94-4.5 24.66-32.94h8.43zm48.34-6.41q0 6.81-1.45 11.83-1.46 5.02-4.04 8.3-2.57 3.27-6.08 4.87-3.51 1.61-7.58 1.61t-7.54-1.61q-3.47-1.6-6.03-4.87-2.56-3.28-4-8.3t-1.44-11.83q0-6.84 1.44-11.84 1.44-5.01 4-8.28 2.56-3.28 6.03-4.88t7.54-1.6 7.58 1.6 6.08 4.88q2.58 3.27 4.04 8.28 1.45 5 1.45 11.84m-9.18 0q0-5.65-.82-9.36-.83-3.71-2.22-5.9-1.38-2.2-3.18-3.08t-3.75-.88q-1.91 0-3.69.88t-3.15 3.08q-1.37 2.19-2.18 5.9t-.81 9.36.81 9.36 2.18 5.91q1.37 2.19 3.15 3.07 1.78.89 3.69.89 1.95 0 3.75-.89 1.8-.88 3.18-3.07 1.39-2.2 2.22-5.91.82-3.71.82-9.36m66.35 14.11-4.71 4.65-12.21-12.21-12.31 12.28-4.72-4.64 12.32-12.35-11.74-11.74 4.68-4.68 11.74 11.74 11.66-11.67 4.75 4.68-11.7 11.7zm31.18-7.7h15.84v-17.03q0-2.41.32-5.33zm23.58 0h6.55v5.15q0 .72-.47 1.24t-1.33.52h-4.75v12.71h-7.74v-12.71h-21.96q-.9 0-1.59-.56-.68-.55-.86-1.38l-.94-4.5 24.66-32.94h8.43zm48.35-6.41q0 6.81-1.46 11.83t-4.03 8.3q-2.58 3.27-6.09 4.87-3.51 1.61-7.58 1.61-4.06 0-7.54-1.61-3.47-1.6-6.03-4.87-2.55-3.28-3.99-8.3t-1.44-11.83q0-6.84 1.44-11.84 1.44-5.01 3.99-8.28 2.56-3.28 6.03-4.88 3.48-1.6 7.54-1.6 4.07 0 7.58 1.6t6.09 4.88q2.57 3.27 4.03 8.28 1.46 5 1.46 11.84m-9.18 0q0-5.65-.83-9.36t-2.22-5.9q-1.38-2.2-3.18-3.08t-3.75-.88q-1.9 0-3.69.88-1.78.88-3.15 3.08-1.36 2.19-2.17 5.9t-.81 9.36.81 9.36 2.17 5.91q1.37 2.19 3.15 3.07 1.79.89 3.69.89 1.95 0 3.75-.89 1.8-.88 3.18-3.07 1.39-2.2 2.22-5.91t.83-9.36m50.94 0q0 6.81-1.46 11.83t-4.03 8.3q-2.58 3.27-6.09 4.87-3.51 1.61-7.58 1.61-4.06 0-7.54-1.61-3.47-1.6-6.03-4.87-2.55-3.28-3.99-8.3t-1.44-11.83q0-6.84 1.44-11.84 1.44-5.01 3.99-8.28 2.56-3.28 6.03-4.88 3.48-1.6 7.54-1.6 4.07 0 7.58 1.6t6.09 4.88q2.57 3.27 4.03 8.28 1.46 5 1.46 11.84m-9.18 0q0-5.65-.83-9.36t-2.22-5.9q-1.38-2.2-3.18-3.08t-3.75-.88q-1.9 0-3.69.88-1.78.88-3.15 3.08-1.36 2.19-2.17 5.9t-.81 9.36.81 9.36 2.17 5.91q1.37 2.19 3.15 3.07 1.79.89 3.69.89 1.95 0 3.75-.89 1.8-.88 3.18-3.07 1.39-2.2 2.22-5.91t.83-9.36"/></svg>