<svg xmlns="http://www.w3.org/2000/svg" width="592" height="400" viewBox="0 0 592 400"><rect width="100%" height="100%" fill="#DDDDDD"/><path fill="#999999" d="m133.75 180.29-2.01 11.89q1.9-.39 3.63-.57 1.74-.18 3.36-.18 4.5 0 7.94 1.34 3.44 1.35 5.77 3.72t3.51 5.55q1.19 3.18 1.19 6.85 0 4.54-1.6 8.29-1.6 3.76-4.45 6.42-2.84 2.67-6.73 4.13t-8.47 1.46q-2.69 0-5.1-.55t-4.52-1.48-3.91-2.14q-1.8-1.2-3.22-2.54l3-4.15q.95-1.34 2.49-1.34.99 0 2.01.63 1.03.63 2.35 1.38 1.33.75 3.13 1.38 1.79.64 4.32.64 2.69 0 4.74-.87t3.42-2.43q1.36-1.56 2.05-3.72.69-2.15.69-4.68 0-4.66-2.7-7.28-2.71-2.63-8-2.63-4.07 0-8.34 1.5l-6.08-1.74 4.74-27.73h28.2v4.15q0 2.09-1.3 3.4-1.3 1.3-4.42 1.3zm40.81 8.3q0 4.78 2.47 7.28 2.47 2.51 7.01 2.51 2.37 0 4.22-.75 1.86-.75 3.12-2.05 1.27-1.31 1.92-3.08.65-1.78.65-3.84 0-2.33-.71-4.16-.71-1.84-2.01-3.1-1.31-1.27-3.1-1.94-1.8-.67-3.93-.67-2.22 0-3.99.73-1.78.73-3.05 2.03-1.26 1.31-1.93 3.11-.67 1.79-.67 3.93m-4.78 39.97 17.73-22.16q.68-.83 1.27-1.62t1.14-1.58q-1.97 1.27-4.34 1.92t-4.98.65q-2.96 0-5.81-1.03-2.84-1.03-5.05-3.1t-3.58-5.13q-1.36-3.07-1.36-7.17 0-3.83 1.42-7.19 1.43-3.36 3.99-5.89 2.57-2.53 6.16-3.99 3.6-1.46 7.94-1.46 4.39 0 7.88 1.38 3.5 1.39 5.97 3.87 2.47 2.49 3.79 5.97t1.32 7.62q0 2.65-.45 5.02t-1.28 4.56-2.02 4.29q-1.18 2.09-2.64 4.14l-13.08 18.65q-.67.95-2.01 1.6-1.35.65-3.05.65zm61.66-9.09h14.65q1.58 0 2.51.89t.93 2.35v5.85h-39.19v-3.24q0-.99.42-2.07.41-1.09 1.32-1.96l17.34-17.38q2.18-2.21 3.89-4.22 1.72-2.02 2.87-3.99 1.14-1.98 1.76-4.01.61-2.04.61-4.29 0-2.05-.59-3.61-.6-1.56-1.68-2.63-1.09-1.07-2.61-1.6t-3.42-.53q-1.74 0-3.22.49t-2.62 1.38q-1.15.89-1.94 2.08-.79 1.18-1.18 2.6-.68 1.82-1.74 2.41-1.07.6-3.08.28l-5.14-.91q.59-4.11 2.29-7.21t4.25-5.17q2.55-2.08 5.85-3.12 3.29-1.05 7.09-1.05 3.95 0 7.22 1.17 3.28 1.16 5.61 3.29 2.33 2.14 3.64 5.14 1.3 3 1.3 6.67 0 3.17-.93 5.85-.93 2.69-2.49 5.14-1.56 2.44-3.65 4.74-2.09 2.29-4.38 4.66l-12.88 13.15q1.86-.55 3.69-.85 1.84-.3 3.5-.3m82.47-3.98-5.17 5.09-13.39-13.39-13.51 13.47-5.17-5.1 13.5-13.54-12.87-12.88 5.13-5.14 12.88 12.88 12.8-12.8 5.21 5.14-12.84 12.84zm34.21-8.46h17.38v-18.68q0-2.65.36-5.85zm25.87 0h7.19v5.65q0 .79-.51 1.36-.51.58-1.46.58h-5.22v13.94h-8.49v-13.94h-24.09q-.99 0-1.74-.62-.75-.61-.95-1.52l-1.03-4.93 27.06-36.15h9.24zm53.05-7.03q0 7.47-1.6 12.98t-4.42 9.1q-2.83 3.6-6.68 5.35-3.85 1.76-8.31 1.76-4.47 0-8.28-1.76-3.81-1.75-6.61-5.35-2.81-3.59-4.39-9.1T385.17 200q0-7.5 1.58-12.99t4.39-9.09q2.8-3.59 6.61-5.35t8.28-1.76q4.46 0 8.31 1.76t6.68 5.35q2.82 3.6 4.42 9.09t1.6 12.99m-10.07 0q0-6.2-.91-10.27t-2.43-6.48-3.49-3.37q-1.98-.97-4.11-.97-2.1 0-4.05.97-1.96.96-3.46 3.37t-2.39 6.48-.89 10.27.89 10.27 2.39 6.48 3.46 3.38q1.95.96 4.05.96 2.13 0 4.11-.96 1.97-.97 3.49-3.38t2.43-6.48.91-10.27m55.89 0q0 7.47-1.6 12.98t-4.42 9.1q-2.83 3.6-6.68 5.35-3.85 1.76-8.31 1.76-4.47 0-8.28-1.76-3.81-1.75-6.61-5.35-2.81-3.59-4.39-9.1T430.99 200q0-7.5 1.58-12.99t4.39-9.09q2.8-3.59 6.61-5.35t8.28-1.76q4.46 0 8.31 1.76t6.68 5.35q2.82 3.6 4.42 9.09t1.6 12.99m-10.07 0q0-6.2-.91-10.27t-2.43-6.48-3.49-3.37q-1.98-.97-4.11-.97-2.1 0-4.05.97-1.96.96-3.46 3.37t-2.39 6.48-.89 10.27.89 10.27 2.39 6.48 3.46 3.38q1.95.96 4.05.96 2.13 0 4.11-.96 1.97-.97 3.49-3.38t2.43-6.48.91-10.27"/></svg>