<svg xmlns="http://www.w3.org/2000/svg" width="650" height="700" viewBox="0 0 650 700"><rect width="100%" height="100%" fill="#DDDDDD"/><path fill="#999999" d="m169.68 318.91-18.44 22.58-2.15 2.66q1.8-.9 3.89-1.39 2.08-.5 4.49-.5 3.53 0 6.86 1.16t5.87 3.51q2.54 2.34 4.09 5.82 1.54 3.49 1.54 8.13 0 4.34-1.59 8.15-1.59 3.8-4.47 6.64t-6.94 4.47q-4.07 1.64-8.97 1.64-4.99 0-8.94-1.59-3.96-1.59-6.75-4.45-2.8-2.86-4.28-6.88-1.49-4.02-1.49-8.93 0-4.38 1.79-9 1.78-4.63 5.52-9.62l14.84-19.9q.77-1.04 2.26-1.77 1.48-.73 3.41-.73zm-16.03 54.18q2.53 0 4.66-.86t3.66-2.41q1.52-1.54 2.38-3.63t.86-4.54q0-2.66-.81-4.79-.82-2.13-2.33-3.61-1.5-1.49-3.61-2.26t-4.64-.77q-2.54 0-4.6.86-2.07.86-3.53 2.38-1.46 1.53-2.28 3.61-.82 2.09-.82 4.5 0 2.58.71 4.71.71 2.12 2.11 3.63 1.4 1.5 3.46 2.34 2.07.84 4.78.84m44.67-44.55-2.19 12.95q2.06-.43 3.96-.63 1.89-.19 3.65-.19 4.9 0 8.64 1.46t6.28 4.04 3.83 6.05q1.29 3.46 1.29 7.46 0 4.94-1.74 9.03-1.74 4.08-4.84 6.98-3.1 2.91-7.33 4.5-4.24 1.59-9.23 1.59-2.92 0-5.54-.6-2.63-.61-4.93-1.62t-4.25-2.32q-1.96-1.31-3.51-2.77l3.27-4.52q1.03-1.46 2.71-1.46 1.07 0 2.19.69t2.56 1.5q1.44.82 3.4 1.51 1.95.69 4.71.69 2.92 0 5.16-.95 2.23-.95 3.72-2.64 1.48-1.7 2.23-4.05.75-2.34.75-5.09 0-5.08-2.94-7.93-2.95-2.86-8.71-2.86-4.43 0-9.07 1.63l-6.62-1.89 5.16-30.19h30.7v4.52q0 2.28-1.42 3.69-1.42 1.42-4.82 1.42zM276.28 350q0 8.13-1.74 14.13-1.74 5.99-4.82 9.91-3.07 3.91-7.26 5.82-4.2 1.92-9.05 1.92-4.86 0-9.01-1.92-4.15-1.91-7.21-5.82-3.05-3.92-4.77-9.91-1.72-6-1.72-14.13 0-8.17 1.72-14.15 1.72-5.97 4.77-9.89 3.06-3.91 7.21-5.82 4.15-1.92 9.01-1.92 4.85 0 9.05 1.92 4.19 1.91 7.26 5.82 3.08 3.92 4.82 9.89 1.74 5.98 1.74 14.15m-10.96 0q0-6.75-.99-11.18t-2.65-7.05q-1.65-2.62-3.8-3.68-2.15-1.05-4.47-1.05-2.28 0-4.41 1.05-2.13 1.06-3.76 3.68-1.64 2.62-2.61 7.05-.96 4.43-.96 11.18t.96 11.18q.97 4.43 2.61 7.05 1.63 2.63 3.76 3.68t4.41 1.05q2.32 0 4.47-1.05t3.8-3.68q1.66-2.62 2.65-7.05t.99-11.18m79.25 16.86-5.64 5.54-14.57-14.57-14.71 14.66-5.63-5.55 14.7-14.75-14.02-14.01 5.59-5.59 14.02 14.01 13.93-13.93 5.68 5.59-13.97 13.98zm29.54-47.95h42.95v4.6q0 2.07-.43 3.34-.43 1.26-.86 2.12l-23.56 48.51q-.73 1.5-2.06 2.56-1.34 1.05-3.57 1.05h-7.7l24.04-47.52q.81-1.46 1.61-2.68.8-1.23 1.78-2.35h-29.75q-.99 0-1.72-.73t-.73-1.72zM467.72 350q0 8.13-1.74 14.13-1.74 5.99-4.82 9.91-3.07 3.91-7.27 5.82-4.19 1.92-9.05 1.92t-9.01-1.92q-4.15-1.91-7.2-5.82-3.05-3.92-4.77-9.91-1.72-6-1.72-14.13 0-8.17 1.72-14.15 1.72-5.97 4.77-9.89 3.05-3.91 7.2-5.82 4.15-1.92 9.01-1.92t9.05 1.92q4.2 1.91 7.27 5.82 3.08 3.92 4.82 9.89 1.74 5.98 1.74 14.15m-10.97 0q0-6.75-.99-11.18t-2.64-7.05q-1.66-2.62-3.81-3.68-2.15-1.05-4.47-1.05-2.28 0-4.41 1.05-2.12 1.06-3.76 3.68-1.63 2.62-2.6 7.05T433.1 350t.97 11.18 2.6 7.05q1.64 2.63 3.76 3.68 2.13 1.05 4.41 1.05 2.32 0 4.47-1.05t3.81-3.68q1.65-2.62 2.64-7.05t.99-11.18m60.85 0q0 8.13-1.74 14.13-1.75 5.99-4.82 9.91-3.07 3.91-7.27 5.82-4.19 1.92-9.05 1.92t-9.01-1.92q-4.15-1.91-7.2-5.82-3.05-3.92-4.77-9.91-1.72-6-1.72-14.13 0-8.17 1.72-14.15 1.72-5.97 4.77-9.89 3.05-3.91 7.2-5.82 4.15-1.92 9.01-1.92t9.05 1.92q4.2 1.91 7.27 5.82 3.07 3.92 4.82 9.89 1.74 5.98 1.74 14.15m-10.97 0q0-6.75-.99-11.18t-2.64-7.05q-1.66-2.62-3.81-3.68-2.15-1.05-4.47-1.05-2.28 0-4.41 1.05-2.12 1.06-3.76 3.68-1.63 2.62-2.6 7.05t-.97 11.18.97 11.18 2.6 7.05q1.64 2.63 3.76 3.68 2.13 1.05 4.41 1.05 2.32 0 4.47-1.05t3.81-3.68q1.65-2.62 2.64-7.05t.99-11.18"/></svg>